<svg width="16" height="16" viewBox="0 0 16 16" fill="none" xmlns="http://www.w3.org/2000/svg">
<circle cx="8.52561" cy="7.80332" r="0.987284" fill="black"/>
<path d="M5.82946 2.00129C5.62248 2.0097 5.42871 2.06209 5.2528 2.16365C4.54917 2.56989 4.38782 3.61799 4.58656 4.86218C4.62545 5.10565 4.67721 5.36246 4.74332 5.6236C4.48566 5.69659 4.23896 5.77676 4.00991 5.86434C2.83303 6.31432 2 6.97778 2 7.79026C2 8.60273 2.83303 9.2662 4.00991 9.71619C4.23896 9.80377 4.48566 9.88393 4.74332 9.95693C4.67721 10.2181 4.62545 10.4749 4.58656 10.7183C4.38782 11.9625 4.54917 13.0106 5.2528 13.4169C5.95643 13.8231 6.94521 13.4385 7.92334 12.6443C8.11468 12.4889 8.30697 12.3113 8.5 12.1236C8.69303 12.3113 8.88532 12.4889 9.07666 12.6443C10.0548 13.4385 11.0436 13.8231 11.7472 13.4169C12.4508 13.0106 12.6122 11.9625 12.4134 10.7183C12.3745 10.4749 12.3228 10.2181 12.2567 9.95693C12.5143 9.88393 12.761 9.80377 12.9901 9.71619C14.167 9.2662 15 8.60273 15 7.79026C15 6.97778 14.167 6.31432 12.9901 5.86434C12.761 5.77676 12.5143 5.69659 12.2567 5.6236C12.3228 5.36246 12.3745 5.10565 12.4134 4.86218C12.6122 3.61799 12.4508 2.56989 11.7472 2.16365C11.0436 1.75741 10.0548 2.14204 9.07666 2.93626C8.88532 3.09162 8.69303 3.26918 8.5 3.45693C8.30697 3.26918 8.11468 3.09162 7.92334 2.93626C7.18974 2.3406 6.45039 1.97604 5.82946 2.00129ZM6.01981 2.7739C6.43009 2.7658 6.98038 3.01513 7.62102 3.53531C7.76216 3.64992 7.90652 3.78327 8.05211 3.92161C7.70056 4.30769 7.35262 4.74478 7.01637 5.22049C6.43385 5.274 5.88231 5.3548 5.37037 5.46683C5.32386 5.27319 5.28126 5.08513 5.2528 4.90697C5.07924 3.82044 5.24557 3.10598 5.6559 2.86907C5.75848 2.80985 5.88305 2.7766 6.01981 2.7739ZM10.9802 2.7739C11.1169 2.7766 11.2415 2.80985 11.3441 2.86907C11.7544 3.10598 11.9208 3.82044 11.7472 4.90697C11.7187 5.08513 11.6761 5.27319 11.6296 5.46683C11.1177 5.3548 10.5661 5.274 9.98364 5.22049C9.64738 4.74478 9.29944 4.30769 8.94789 3.92161C9.09348 3.78327 9.23784 3.64992 9.37898 3.53531C10.0196 3.01513 10.5699 2.7658 10.9802 2.7739ZM8.5 4.3751C8.72017 4.61435 8.94162 4.87536 9.16064 5.15891C8.94343 5.15034 8.72297 5.14771 8.5 5.14771C8.27703 5.14771 8.05657 5.15034 7.83936 5.15891C8.05838 4.87536 8.27983 4.61435 8.5 4.3751ZM8.5 5.77476C8.88903 5.77476 9.26949 5.78631 9.63652 5.81395C9.84595 6.12043 10.0505 6.44253 10.2468 6.78251C10.4423 7.1211 10.6184 7.45698 10.7786 7.79026C10.6184 8.12354 10.4423 8.45943 10.2468 8.79801C10.0505 9.138 9.84595 9.46009 9.63652 9.76658C9.26949 9.79422 8.88903 9.80577 8.5 9.80577C8.11097 9.80577 7.73051 9.79422 7.36348 9.76658C7.15405 9.46009 6.94952 9.138 6.75323 8.79801C6.55775 8.45943 6.38155 8.12354 6.22136 7.79026C6.38155 7.45698 6.55775 7.1211 6.75323 6.78251C6.94952 6.44253 7.15405 6.12043 7.36348 5.81395C7.73051 5.78631 8.11097 5.77476 8.5 5.77476ZM6.55728 5.90353C6.44061 6.08828 6.32225 6.27485 6.21016 6.46899C6.0981 6.66309 5.9927 6.85786 5.89104 7.05124C5.75425 6.71818 5.6358 6.39439 5.53833 6.08268C5.8579 6.011 6.19932 5.95169 6.55728 5.90353ZM10.4427 5.90353C10.8007 5.95169 11.1421 6.011 11.4617 6.08268C11.3642 6.39439 11.2458 6.71818 11.109 7.05124C11.0073 6.85786 10.9019 6.66309 10.7898 6.46899C10.6778 6.27485 10.5594 6.08828 10.4427 5.90353ZM4.92248 6.23944C5.08146 6.73941 5.28753 7.25833 5.53273 7.79026C5.28753 8.3222 5.08146 8.84111 4.92248 9.34108C4.73075 9.28437 4.54855 9.221 4.37941 9.15633C3.35167 8.76337 2.8174 8.26406 2.8174 7.79026C2.8174 7.31645 3.35167 6.81716 4.37941 6.4242C4.54855 6.35953 4.73075 6.29616 4.92248 6.23944ZM12.0775 6.23944C12.2693 6.29616 12.4514 6.35953 12.6206 6.4242C13.6483 6.81716 14.1826 7.31645 14.1826 7.79026C14.1826 8.26406 13.6483 8.76337 12.6206 9.15633C12.4514 9.221 12.2693 9.28437 12.0775 9.34108C11.9185 8.84111 11.7125 8.3222 11.4673 7.79026C11.7125 7.25833 11.9185 6.73941 12.0775 6.23944ZM5.89104 8.52928C5.9927 8.72267 6.0981 8.91744 6.21016 9.11154C6.32225 9.30567 6.44061 9.49224 6.55728 9.677C6.19932 9.62883 5.8579 9.56952 5.53833 9.49784C5.6358 9.18613 5.75425 8.86235 5.89104 8.52928ZM11.109 8.52928C11.2458 8.86235 11.3642 9.18613 11.4617 9.49784C11.1421 9.56952 10.8007 9.62883 10.4427 9.677C10.5594 9.49224 10.6778 9.30567 10.7898 9.11154C10.9019 8.91744 11.0073 8.72267 11.109 8.52928ZM5.37037 10.1137C5.88231 10.2257 6.43385 10.3065 7.01637 10.36C7.35262 10.8357 7.70056 11.2728 8.05211 11.6589C7.90652 11.7973 7.76216 11.9306 7.62102 12.0452C6.76683 12.7388 6.06623 12.9483 5.6559 12.7115C5.24557 12.4746 5.07924 11.7601 5.2528 10.6736C5.28126 10.4954 5.32386 10.3073 5.37037 10.1137ZM11.6296 10.1137C11.6761 10.3073 11.7187 10.4954 11.7472 10.6736C11.9208 11.7601 11.7544 12.4746 11.3441 12.7115C10.9338 12.9483 10.2332 12.7388 9.37898 12.0452C9.23784 11.9306 9.09348 11.7973 8.94789 11.6589C9.29944 11.2728 9.64738 10.8357 9.98364 10.36C10.5661 10.3065 11.1177 10.2257 11.6296 10.1137ZM7.83936 10.4216C8.05657 10.4302 8.27703 10.4328 8.5 10.4328C8.72297 10.4328 8.94343 10.4302 9.16064 10.4216C8.94162 10.7052 8.72017 10.9662 8.5 11.2054C8.27983 10.9662 8.05838 10.7052 7.83936 10.4216Z" fill="black"/>
</svg>
