<svg width="270" height="241" viewBox="0 0 270 241" fill="none" xmlns="http://www.w3.org/2000/svg">
<circle cx="135.5" cy="120.5" r="20.5" fill="url(#paint0_linear)"/>
<path d="M79.515 0.0267313C75.2173 0.201478 71.1938 1.28919 67.5413 3.39798C52.9311 11.8332 49.5808 33.596 53.7075 59.4305C54.515 64.4859 55.5897 69.8183 56.9625 75.2405C51.6123 76.7562 46.4899 78.4207 41.7337 80.2392C17.2971 89.5826 0 103.359 0 120.229C0 137.099 17.2971 150.876 41.7337 160.219C46.4899 162.038 51.6123 163.702 56.9625 165.218C55.5897 170.64 54.515 175.973 53.7075 181.028C49.5808 206.862 52.9311 228.625 67.5413 237.06C82.1514 245.496 102.683 237.509 122.993 221.018C126.965 217.792 130.958 214.105 134.966 210.207C138.974 214.105 142.967 217.792 146.94 221.018C167.25 237.509 187.781 245.496 202.391 237.06C217.001 228.625 220.352 206.862 216.225 181.028C215.417 175.973 214.343 170.64 212.97 165.218C218.32 163.702 223.443 162.038 228.199 160.219C252.635 150.876 269.932 137.099 269.932 120.229C269.932 103.359 252.635 89.5826 228.199 80.2392C223.443 78.4207 218.32 76.7562 212.97 75.2405C214.343 69.8183 215.417 64.4859 216.225 59.4305C220.352 33.596 217.001 11.8332 202.391 3.39798C187.781 -5.03719 167.25 2.94942 146.94 19.4405C142.967 22.6664 138.974 26.3533 134.966 30.2517C130.958 26.3533 126.965 22.6664 122.993 19.4405C107.76 7.07219 92.4081 -0.497506 79.515 0.0267313ZM83.4675 16.0692C91.9866 15.901 103.413 21.0782 116.715 31.8792C119.646 34.2589 122.643 37.0279 125.666 39.9005C118.367 47.917 111.142 56.9927 104.16 66.8705C92.0647 67.9814 80.6124 69.6592 69.9825 71.9855C69.0167 67.9647 68.1322 64.0598 67.5413 60.3605C63.9375 37.7997 67.3912 22.9645 75.9112 18.0455C78.0413 16.8157 80.6278 16.1253 83.4675 16.0692ZM186.465 16.0692C189.305 16.1253 191.891 16.8157 194.021 18.0455C202.541 22.9645 205.995 37.7997 202.391 60.3605C201.8 64.0598 200.916 67.9647 199.95 71.9855C189.32 69.6592 177.868 67.9814 165.773 66.8705C158.79 56.9927 151.566 47.917 144.266 39.9005C147.289 37.0279 150.287 34.2589 153.217 31.8792C166.52 21.0782 177.946 15.901 186.465 16.0692ZM134.966 49.3167C139.538 54.2844 144.136 59.704 148.684 65.5917C144.174 65.4138 139.596 65.3592 134.966 65.3592C130.336 65.3592 125.759 65.4138 121.249 65.5917C125.796 59.704 130.395 54.2844 134.966 49.3167ZM134.966 78.3792C143.044 78.3792 150.944 78.619 158.565 79.193C162.914 85.5568 167.16 92.2448 171.236 99.3042C175.295 106.335 178.954 113.309 182.28 120.229C178.954 127.149 175.295 134.124 171.236 141.154C167.16 148.214 162.914 154.902 158.565 161.265C150.944 161.839 143.044 162.079 134.966 162.079C126.889 162.079 118.988 161.839 111.368 161.265C107.019 154.902 102.772 148.214 98.6963 141.154C94.6373 134.124 90.9788 127.149 87.6525 120.229C90.9788 113.309 94.6373 106.335 98.6963 99.3042C102.772 92.2448 107.019 85.5568 111.368 79.193C118.988 78.619 126.889 78.3792 134.966 78.3792ZM94.6275 81.053C92.2049 84.8893 89.7473 88.7632 87.42 92.7942C85.0931 96.8245 82.9045 100.869 80.7937 104.884C77.9534 97.9685 75.4939 91.2453 73.47 84.773C80.1057 83.2846 87.1949 82.0531 94.6275 81.053ZM175.305 81.053C182.738 82.0531 189.827 83.2846 196.462 84.773C194.439 91.2453 191.979 97.9685 189.139 104.884C187.028 100.869 184.839 96.8245 182.512 92.7942C180.185 88.7632 177.728 84.8893 175.305 81.053ZM60.6825 88.028C63.9836 98.4093 68.2624 109.184 73.3538 120.229C68.2624 131.274 63.9836 142.049 60.6825 152.43C56.7013 151.253 52.9182 149.937 49.4062 148.594C28.0661 140.435 16.9725 130.067 16.9725 120.229C16.9725 110.391 28.0661 100.024 49.4062 91.8642C52.9182 90.5214 56.7013 89.2056 60.6825 88.028ZM209.25 88.028C213.231 89.2056 217.014 90.5214 220.526 91.8642C241.866 100.024 252.96 110.391 252.96 120.229C252.96 130.067 241.866 140.435 220.526 148.594C217.014 149.937 213.231 151.253 209.25 152.43C205.949 142.049 201.67 131.274 196.579 120.229C201.67 109.184 205.949 98.4093 209.25 88.028ZM80.7937 135.574C82.9045 139.59 85.0931 143.634 87.42 147.664C89.7473 151.695 92.2049 155.569 94.6275 159.405C87.1949 158.405 80.1057 157.174 73.47 155.685C75.4939 149.213 77.9534 142.49 80.7937 135.574ZM189.139 135.574C191.979 142.49 194.439 149.213 196.462 155.685C189.827 157.174 182.738 158.405 175.305 159.405C177.728 155.569 180.185 151.695 182.512 147.664C184.839 143.634 187.028 139.59 189.139 135.574ZM69.9825 168.473C80.6124 170.799 92.0647 172.477 104.16 173.588C111.142 183.466 118.367 192.541 125.666 200.558C122.643 203.431 119.646 206.2 116.715 208.579C98.9787 222.98 84.4313 227.332 75.9112 222.413C67.3912 217.494 63.9375 202.659 67.5413 180.098C68.1322 176.399 69.0167 172.494 69.9825 168.473ZM199.95 168.473C200.916 172.494 201.8 176.399 202.391 180.098C205.995 202.659 202.541 217.494 194.021 222.413C185.501 227.332 170.954 222.98 153.217 208.579C150.287 206.2 147.289 203.431 144.266 200.558C151.566 192.541 158.79 183.466 165.773 173.588C177.868 172.477 189.32 170.799 199.95 168.473ZM121.249 174.867C125.759 175.045 130.336 175.099 134.966 175.099C139.596 175.099 144.174 175.045 148.684 174.867C144.136 180.754 139.538 186.174 134.966 191.142C130.395 186.174 125.796 180.754 121.249 174.867Z" fill="url(#paint1_linear)"/>
<defs>
<linearGradient id="paint0_linear" x1="118.493" y1="102.558" x2="154.516" y2="135.555" gradientUnits="userSpaceOnUse">
<stop stop-color="#0D8ABB"/>
<stop offset="1" stop-color="#2DC9E2"/>
</linearGradient>
<linearGradient id="paint1_linear" x1="23" y1="15" x2="235" y2="233" gradientUnits="userSpaceOnUse">
<stop stop-color="#0D8ABB"/>
<stop offset="1" stop-color="#2DC9E2"/>
</linearGradient>
</defs>
</svg>
